<svg width="46" height="36" viewBox="0 0 46 36" fill="none" xmlns="http://www.w3.org/2000/svg">
<path d="M17.8522 30.1819C11.1397 30.1819 5.71268 24.7549 5.71268 18.0424C5.71268 11.33 11.1397 5.90295 17.8522 5.90295C24.5646 5.90295 29.9916 11.33 29.9916 18.0424C29.9916 24.7549 24.5646 30.1819 17.8522 30.1819ZM17.8522 7.33113C11.9252 7.33113 7.14085 12.1155 7.14085 18.0424C7.14085 23.9694 11.9252 28.7537 17.8522 28.7537C23.7791 28.7537 28.5635 23.9694 28.5635 18.0424C28.5635 12.1155 23.7791 7.33113 17.8522 7.33113Z" fill="#0F2A71"/>
<path d="M16.4241 23.3271L10.2115 17.1145L11.2113 16.1148L16.4241 21.3276L24.4933 13.2584L25.493 14.2581L16.4241 23.3271Z" fill="#0F2A71"/>
</svg>
